HIERARCHY
ROOT mixamorig1:Hips
{
	OFFSET 0.000000 0.000000 0.000000
	CHANNELS 6 Xposition Yposition Zposition Xrotation Yrotation Zrotation
	JOINT mixamorig1:Spine
	{
		OFFSET 0.000000 9.717224 -1.180208
		CHANNELS 3 Xrotation Yrotation Zrotation
		JOINT mixamorig1:Spine1
		{
			OFFSET 0.000000 11.336823 -1.376933
			CHANNELS 3 Xrotation Yrotation Zrotation
			JOINT mixamorig1:Spine2
			{
				OFFSET 0.000000 12.956345 -1.573653
				CHANNELS 3 Xrotation Yrotation Zrotation
				JOINT mixamorig1:Neck
				{
					OFFSET 0.000000 14.575974 -1.770439
					CHANNELS 3 Xrotation Yrotation Zrotation
					JOINT mixamorig1:Head
					{
						OFFSET 0.000000 6.720200 1.972157
						CHANNELS 3 Xrotation Yrotation Zrotation
						JOINT mixamorig1:HeadTop_End
						{
							OFFSET 0.000000 20.999847 6.162763
							CHANNELS 3 Xrotation Yrotation Zrotation
							End Site
							{
								OFFSET 0.000000 21.885452 -0.000002
							}
						}
					}
				}
				JOINT mixamorig1:LeftShoulder
				{
					OFFSET 6.140116 12.877853 -1.799545
					CHANNELS 3 Xrotation Yrotation Zrotation
					JOINT mixamorig1:LeftArm
					{
						OFFSET 12.545031 -3.431427 -0.058010
						CHANNELS 3 Xrotation Yrotation Zrotation
						JOINT mixamorig1:LeftForeArm
						{
							OFFSET 25.447281 -1.876373 -1.505625
							CHANNELS 3 Xrotation Yrotation Zrotation
							JOINT mixamorig1:LeftHand
							{
								OFFSET 23.367504 0.877640 0.971305
								CHANNELS 3 Xrotation Yrotation Zrotation
								JOINT mixamorig1:LeftHandThumb1
								{
									OFFSET 3.575478 -1.761887 3.039434
									CHANNELS 3 Xrotation Yrotation Zrotation
									JOINT mixamorig1:LeftHandThumb2
									{
										OFFSET 2.860405 -1.409454 2.431552
										CHANNELS 3 Xrotation Yrotation Zrotation
										JOINT mixamorig1:LeftHandThumb3
										{
											OFFSET 2.578941 -1.801514 1.750709
											CHANNELS 3 Xrotation Yrotation Zrotation
											JOINT mixamorig1:LeftHandThumb4
											{
												OFFSET 2.408989 -1.461151 1.064221
												CHANNELS 3 Xrotation Yrotation Zrotation
												End Site
												{
													OFFSET 2.176476 -1.503357 1.440013
												}
											}
										}
									}
								}
								JOINT mixamorig1:LeftHandIndex1
								{
									OFFSET 11.357018 -1.306473 4.439679
									CHANNELS 3 Xrotation Yrotation Zrotation
									JOINT mixamorig1:LeftHandIndex2
									{
										OFFSET 3.215240 -0.390930 0.624045
										CHANNELS 3 Xrotation Yrotation Zrotation
										JOINT mixamorig1:LeftHandIndex3
										{
											OFFSET 2.938980 -0.735489 0.560646
											CHANNELS 3 Xrotation Yrotation Zrotation
											JOINT mixamorig1:LeftHandIndex4
											{
												OFFSET 2.552437 -0.779205 0.483288
												CHANNELS 3 Xrotation Yrotation Zrotation
												End Site
												{
													OFFSET 2.555870 -0.777603 0.467434
												}
											}
										}
									}
								}
								JOINT mixamorig1:LeftHandMiddle1
								{
									OFFSET 12.195602 -0.657242 2.108765
									CHANNELS 3 Xrotation Yrotation Zrotation
									JOINT mixamorig1:LeftHandMiddle2
									{
										OFFSET 3.379944 -0.547394 0.236206
										CHANNELS 3 Xrotation Yrotation Zrotation
										JOINT mixamorig1:LeftHandMiddle3
										{
											OFFSET 3.043900 -0.829651 0.195068
											CHANNELS 3 Xrotation Yrotation Zrotation
											JOINT mixamorig1:LeftHandMiddle4
											{
												OFFSET 2.806625 -0.600723 0.188473
												CHANNELS 3 Xrotation Yrotation Zrotation
												End Site
												{
													OFFSET 2.806618 -0.600739 0.188510
												}
											}
										}
									}
								}
								JOINT mixamorig1:LeftHandRing1
								{
									OFFSET 12.563576 -0.458878 -0.154891
									CHANNELS 3 Xrotation Yrotation Zrotation
									JOINT mixamorig1:LeftHandRing2
									{
										OFFSET 2.596565 -0.829819 0.032336
										CHANNELS 3 Xrotation Yrotation Zrotation
										JOINT mixamorig1:LeftHandRing3
										{
											OFFSET 2.548286 -0.608398 0.044838
											CHANNELS 3 Xrotation Yrotation Zrotation
											JOINT mixamorig1:LeftHandRing4
											{
												OFFSET 2.167870 -0.507812 0.038965
												CHANNELS 3 Xrotation Yrotation Zrotation
												End Site
												{
													OFFSET 2.167732 -0.508163 0.042114
												}
											}
										}
									}
								}
								JOINT mixamorig1:LeftHandPinky1
								{
									OFFSET 11.341652 -0.310532 -2.253323
									CHANNELS 3 Xrotation Yrotation Zrotation
									JOINT mixamorig1:LeftHandPinky2
									{
										OFFSET 2.648827 -0.669128 -0.120024
										CHANNELS 3 Xrotation Yrotation Zrotation
										JOINT mixamorig1:LeftHandPinky3
										{
											OFFSET 2.075249 -0.703857 -0.105192
											CHANNELS 3 Xrotation Yrotation Zrotation
											JOINT mixamorig1:LeftHandPinky4
											{
												OFFSET 1.850784 -0.684036 -0.097376
												CHANNELS 3 Xrotation Yrotation Zrotation
												End Site
												{
													OFFSET 1.850731 -0.683411 -0.102854
												}
											}
										}
									}
								}
							}
						}
					}
				}
				JOINT mixamorig1:RightShoulder
				{
					OFFSET -6.140133 12.877823 -1.741388
					CHANNELS 3 Xrotation Yrotation Zrotation
					JOINT mixamorig1:RightArm
					{
						OFFSET -12.545002 -3.431366 0.058123
						CHANNELS 3 Xrotation Yrotation Zrotation
						JOINT mixamorig1:RightForeArm
						{
							OFFSET -25.447330 -1.876465 -1.671036
							CHANNELS 3 Xrotation Yrotation Zrotation
							JOINT mixamorig1:RightHand
							{
								OFFSET -23.367435 0.877640 0.912149
								CHANNELS 3 Xrotation Yrotation Zrotation
								JOINT mixamorig1:RightHandThumb1
								{
									OFFSET -3.655281 -1.787811 3.110017
									CHANNELS 3 Xrotation Yrotation Zrotation
									JOINT mixamorig1:RightHandThumb2
									{
										OFFSET -2.924309 -1.430252 2.488113
										CHANNELS 3 Xrotation Yrotation Zrotation
										JOINT mixamorig1:RightHandThumb3
										{
											OFFSET -2.528549 -1.776962 1.706924
											CHANNELS 3 Xrotation Yrotation Zrotation
											JOINT mixamorig1:RightHandThumb4
											{
												OFFSET -2.443375 -1.162323 1.073468
												CHANNELS 3 Xrotation Yrotation Zrotation
												End Site
												{
													OFFSET -2.204521 -1.202744 1.472025
												}
											}
										}
									}
								}
								JOINT mixamorig1:RightHandIndex1
								{
									OFFSET -11.888382 -1.247833 4.755188
									CHANNELS 3 Xrotation Yrotation Zrotation
									JOINT mixamorig1:RightHandIndex2
									{
										OFFSET -3.042244 -0.516434 0.442817
										CHANNELS 3 Xrotation Yrotation Zrotation
										JOINT mixamorig1:RightHandIndex3
										{
											OFFSET -2.738869 -0.708374 0.392164
											CHANNELS 3 Xrotation Yrotation Zrotation
											JOINT mixamorig1:RightHandIndex4
											{
												OFFSET -2.432571 -0.620773 0.348507
												CHANNELS 3 Xrotation Yrotation Zrotation
												End Site
												{
													OFFSET -2.433441 -0.620270 0.343348
												}
											}
										}
									}
								}
								JOINT mixamorig1:RightHandMiddle1
								{
									OFFSET -12.008347 -0.748550 2.098396
									CHANNELS 3 Xrotation Yrotation Zrotation
									JOINT mixamorig1:RightHandMiddle2
									{
										OFFSET -3.442291 -0.415817 0.287318
										CHANNELS 3 Xrotation Yrotation Zrotation
										JOINT mixamorig1:RightHandMiddle3
										{
											OFFSET -3.106178 -0.837677 0.240102
											CHANNELS 3 Xrotation Yrotation Zrotation
											JOINT mixamorig1:RightHandMiddle4
											{
												OFFSET -2.855728 -0.604996 0.227592
												CHANNELS 3 Xrotation Yrotation Zrotation
												End Site
												{
													OFFSET -2.855972 -0.604736 0.225131
												}
											}
										}
									}
								}
								JOINT mixamorig1:RightHandRing1
								{
									OFFSET -12.328026 -0.608994 -0.015787
									CHANNELS 3 Xrotation Yrotation Zrotation
									JOINT mixamorig1:RightHandRing2
									{
										OFFSET -2.763496 -0.569153 -0.029507
										CHANNELS 3 Xrotation Yrotation Zrotation
										JOINT mixamorig1:RightHandRing3
										{
											OFFSET -2.573975 -0.772354 -0.042469
											CHANNELS 3 Xrotation Yrotation Zrotation
											JOINT mixamorig1:RightHandRing4
											{
												OFFSET -2.323860 -0.456833 -0.023427
												CHANNELS 3 Xrotation Yrotation Zrotation
												End Site
												{
													OFFSET -2.323814 -0.457275 -0.019363
												}
											}
										}
									}
								}
								JOINT mixamorig1:RightHandPinky1
								{
									OFFSET -11.463135 -0.329407 -2.202621
									CHANNELS 3 Xrotation Yrotation Zrotation
									JOINT mixamorig1:RightHandPinky2
									{
										OFFSET -2.569016 -0.599854 -0.108848
										CHANNELS 3 Xrotation Yrotation Zrotation
										JOINT mixamorig1:RightHandPinky3
										{
											OFFSET -2.016190 -0.737000 -0.102787
											CHANNELS 3 Xrotation Yrotation Zrotation
											JOINT mixamorig1:RightHandPinky4
											{
												OFFSET -1.796242 -0.576553 -0.085258
												CHANNELS 3 Xrotation Yrotation Zrotation
												End Site
												{
													OFFSET -1.796211 -0.576279 -0.087722
												}
											}
										}
									}
								}
							}
						}
					}
				}
			}
		}
	}
	JOINT mixamorig1:LeftUpLeg
	{
		OFFSET 8.078197 -5.402374 -0.535866
		CHANNELS 3 Xrotation Yrotation Zrotation
		JOINT mixamorig1:LeftLeg
		{
			OFFSET 3.743073 -42.540520 -2.695462
			CHANNELS 3 Xrotation Yrotation Zrotation
			JOINT mixamorig1:LeftFoot
			{
				OFFSET 3.359008 -41.940849 -2.882249
				CHANNELS 3 Xrotation Yrotation Zrotation
				JOINT mixamorig1:LeftToeBase
				{
					OFFSET 1.133368 -9.116440 13.321876
					CHANNELS 3 Xrotation Yrotation Zrotation
					JOINT mixamorig1:LeftToe_End
					{
						OFFSET 0.591574 -0.054443 6.177378
						CHANNELS 3 Xrotation Yrotation Zrotation
						End Site
						{
							OFFSET 0.591574 -0.054443 6.177376
						}
					}
				}
			}
		}
	}
	JOINT mixamorig1:RightUpLeg
	{
		OFFSET -8.078202 -5.402405 -0.751774
		CHANNELS 3 Xrotation Yrotation Zrotation
		JOINT mixamorig1:RightLeg
		{
			OFFSET -3.743069 -42.540482 -2.464520
			CHANNELS 3 Xrotation Yrotation Zrotation
			JOINT mixamorig1:RightFoot
			{
				OFFSET -3.359002 -41.940781 -2.968978
				CHANNELS 3 Xrotation Yrotation Zrotation
				JOINT mixamorig1:RightToeBase
				{
					OFFSET -1.133408 -9.116798 13.416487
					CHANNELS 3 Xrotation Yrotation Zrotation
					JOINT mixamorig1:RightToe_End
					{
						OFFSET -0.591589 -0.054611 6.151404
						CHANNELS 3 Xrotation Yrotation Zrotation
						End Site
						{
							OFFSET -0.591589 -0.054611 6.151402
						}
					}
				}
			}
		}
	}
}
MOTION
Frames: 4
Frame Time: 0.033333
-120.024193 103.790901 33.562653 22.204484 64.599765 -9.617425 23.082138 -0.245127 7.786119 7.070807 -0.376512 3.450683 12.381836 -0.378057 6.054801 -2.406603 -9.151598 4.639057 -16.912757 -18.862452 2.622459 0.000003 -0.000000 -0.000001 22.562572 -13.512655 -7.429455 -38.113443 -29.127287 -71.570369 30.894390 -27.623027 16.084824 4.491270 3.553153 34.238973 -0.000003 0.000002 -0.000001 -0.000002 -0.000001 -0.000004 -0.000004 0.000000 0.000001 -0.000003 0.000002 -0.000001 -0.000001 0.000000 -0.000002 -0.000001 -0.000000 -0.000002 -0.000001 -0.000001 0.000000 0.000001 -0.000001 0.000001 -0.000002 0.000002 0.000000 -0.000001 -0.000000 -0.000001 0.000000 0.000000 0.000001 -0.000002 0.000000 -0.000003 -0.000001 0.000002 -0.000001 -0.000001 -0.000002 -0.000003 0.000001 0.000000 0.000002 0.000001 0.000001 0.000005 -0.000002 0.000001 -0.000000 -0.000002 0.000000 0.000000 0.000000 -0.000001 -0.000001 -0.000001 0.000001 0.000005 19.732034 14.589837 1.179980 -43.983502 30.652964 60.000015 3.021897 16.406350 -35.646805 28.693594 4.980516 -76.181492 0.000001 0.000000 0.000001 -0.000007 -0.000001 -0.000006 0.000007 -0.000003 -0.000003 -0.000002 -0.000001 0.000004 0.000000 0.000001 -0.000001 -0.000001 0.000001 0.000000 -0.000001 0.000003 -0.000001 -0.000001 -0.000006 -0.000002 0.000000 -0.000000 -0.000001 0.000001 -0.000005 -0.000001 0.000001 -0.000004 0.000001 -0.000001 -0.000002 -0.000002 0.000001 -0.000002 0.000000 -0.000000 -0.000001 -0.000001 -0.000001 0.000003 -0.000001 -0.000001 0.000002 0.000000 -0.000002 -0.000006 -0.000001 -0.000002 0.000001 0.000001 -0.000001 0.000004 0.000001 0.000000 0.000002 0.000004 -20.637620 23.861105 1.593484 19.171416 0.959598 0.568552 -5.874337 6.815571 5.408535 0.000112 0.000001 0.000927 0.000000 0.000000 0.000000 -26.728412 -10.844545 -11.947351 15.782858 2.823669 -0.351157 -4.888896 0.507869 -1.474650 0.000155 0.000035 -0.002033 0.000000 0.000004 -0.000000 
-120.017799 103.732773 33.268417 22.208703 65.793669 -9.955764 23.040648 -0.225788 7.808715 7.052698 -0.367964 3.461398 12.349816 -0.362956 6.072775 -2.360329 -9.457837 4.846034 -16.832812 -19.523099 2.809264 0.000004 0.000003 -0.000000 22.384104 -13.295493 -7.437699 -37.800497 -28.788831 -71.565752 30.942867 -27.702361 15.892192 4.431437 3.503534 34.051502 0.000002 -0.000003 0.000001 -0.000003 -0.000002 -0.000000 -0.000003 -0.000002 -0.000001 -0.000001 0.000001 -0.000003 -0.000001 0.000001 0.000004 0.000000 -0.000001 -0.000000 0.000002 -0.000001 0.000000 0.000001 0.000001 -0.000002 -0.000002 0.000001 0.000003 0.000001 -0.000001 0.000002 -0.000000 -0.000001 -0.000003 -0.000001 0.000001 0.000005 -0.000002 0.000002 -0.000001 0.000001 -0.000000 0.000000 -0.000001 0.000001 -0.000001 -0.000000 0.000001 -0.000000 -0.000002 0.000001 0.000007 0.000001 0.000002 0.000000 -0.000002 -0.000000 0.000008 0.000001 0.000001 0.000002 19.626453 14.739072 1.281978 -43.541168 30.081946 59.365463 1.469281 16.441543 -35.227233 28.953261 5.577966 -75.997281 0.000003 -0.000001 0.000001 -0.000002 -0.000001 -0.000004 0.000007 0.000003 -0.000003 -0.000003 0.000004 0.000006 -0.000000 -0.000004 -0.000001 0.000000 -0.000001 -0.000001 0.000001 -0.000003 -0.000003 -0.000001 0.000005 0.000000 0.000000 -0.000001 -0.000001 0.000000 0.000001 -0.000000 -0.000001 0.000005 0.000000 -0.000001 0.000001 -0.000000 -0.000000 -0.000004 0.000000 0.000001 -0.000001 0.000001 0.000001 0.000004 0.000000 -0.000000 -0.000002 -0.000000 -0.000002 -0.000003 -0.000001 -0.000000 -0.000001 0.000002 -0.000001 -0.000004 -0.000000 0.000002 -0.000004 0.000002 -20.556434 23.955615 2.190705 19.408467 1.875437 0.459607 -5.906414 6.819517 5.481068 0.000120 -0.000001 0.000914 0.000000 0.000001 0.000001 -26.360929 -11.187535 -12.120161 15.842523 2.840807 -0.433121 -4.905148 -0.376160 -1.409441 0.000152 0.000035 -0.002034 0.000000 0.000005 0.000000 
-120.011406 103.674629 32.974167 22.231166 66.987538 -10.310868 22.998516 -0.207114 7.830705 7.034299 -0.359717 3.471845 12.317336 -0.348459 6.090388 -2.310448 -9.763812 5.053412 -16.745916 -20.183636 2.996711 -0.000004 -0.000000 -0.000003 22.201144 -13.082066 -7.445983 -37.487572 -28.447053 -71.553123 30.989371 -27.776595 15.696574 4.371622 3.459108 33.862695 0.000002 0.000000 -0.000002 -0.000000 -0.000001 0.000002 -0.000006 -0.000003 -0.000000 -0.000001 0.000002 -0.000001 -0.000002 0.000001 -0.000001 -0.000001 0.000002 0.000001 -0.000000 -0.000001 0.000000 0.000001 -0.000003 -0.000001 0.000001 -0.000001 -0.000001 0.000001 0.000001 -0.000001 -0.000000 -0.000001 -0.000002 0.000000 -0.000001 0.000000 -0.000000 0.000001 -0.000003 0.000001 0.000001 0.000003 0.000001 0.000002 0.000004 0.000000 0.000000 -0.000000 0.000001 0.000000 0.000001 0.000001 0.000001 -0.000002 -0.000000 0.000000 -0.000001 -0.000000 -0.000001 0.000002 19.516905 14.886361 1.383983 -43.096028 29.506151 58.744531 -0.083994 16.454236 -34.797020 29.212132 6.176019 -75.817299 -0.000002 0.000001 0.000003 -0.000002 -0.000000 -0.000002 0.000003 -0.000004 -0.000002 0.000002 -0.000001 0.000005 -0.000000 -0.000001 -0.000000 0.000000 -0.000005 -0.000002 0.000001 0.000001 -0.000002 -0.000001 0.000000 -0.000001 -0.000001 0.000002 0.000001 -0.000000 0.000000 0.000001 0.000004 -0.000005 -0.000000 -0.000000 -0.000001 0.000001 0.000001 -0.000004 0.000002 -0.000000 -0.000006 -0.000001 -0.000000 0.000006 0.000001 -0.000002 -0.000003 -0.000001 -0.000002 -0.000001 -0.000001 0.000000 0.000000 0.000001 -0.000001 0.000002 0.000003 -0.000001 0.000004 0.000003 -20.490952 24.048336 2.795995 19.652495 2.790341 0.354504 -5.941276 6.823742 5.552554 0.000093 0.000013 0.000919 0.000000 -0.000001 -0.000000 -25.990463 -11.532573 -12.283556 15.903305 2.858013 -0.514260 -4.917937 -1.260170 -1.343323 0.000146 0.000012 -0.002044 -0.000000 0.000007 -0.000000 
-120.004143 103.619576 32.669518 22.292670 68.217757 -10.743274 22.958948 -0.201885 7.859430 7.016750 -0.357729 3.484817 12.286524 -0.344693 6.112867 -2.248713 -10.060741 5.279825 -16.631191 -20.838958 3.227121 0.000002 0.000001 -0.000001 22.042593 -12.857233 -7.471034 -37.188973 -28.110590 -71.530754 31.014393 -27.803895 15.462324 4.345222 3.408928 33.631151 0.000003 0.000003 -0.000002 -0.000000 -0.000001 -0.000001 -0.000005 -0.000002 -0.000006 -0.000003 0.000006 0.000003 0.000001 -0.000000 -0.000000 -0.000002 0.000002 -0.000002 0.000000 -0.000001 -0.000002 -0.000001 -0.000001 0.000002 0.000002 0.000000 0.000001 -0.000001 0.000000 -0.000005 0.000000 0.000000 -0.000002 -0.000001 -0.000001 -0.000001 0.000002 0.000001 -0.000004 -0.000000 0.000000 0.000005 0.000001 -0.000000 0.000004 -0.000000 -0.000001 -0.000002 0.000001 0.000000 -0.000002 -0.000000 -0.000000 -0.000003 0.000001 0.000000 0.000003 0.000001 0.000000 0.000002 19.377286 15.026220 1.485988 -42.691445 28.889596 58.213197 -1.609098 16.432520 -34.374706 29.210144 6.581395 -75.596069 -0.000001 0.000004 -0.000001 -0.000005 -0.000003 -0.000001 0.000003 -0.000002 -0.000002 -0.000003 0.000004 0.000003 -0.000000 0.000002 -0.000001 -0.000000 0.000002 -0.000000 0.000001 0.000001 -0.000001 -0.000001 -0.000003 0.000001 0.000000 -0.000002 -0.000001 0.000001 -0.000005 0.000001 -0.000001 0.000005 0.000002 0.000000 0.000002 0.000000 0.000001 0.000000 0.000001 -0.000000 0.000001 -0.000001 -0.000001 0.000005 0.000000 0.000000 -0.000001 0.000000 -0.000000 -0.000002 0.000001 -0.000001 -0.000005 0.000002 0.000002 -0.000000 0.000003 -0.000000 0.000002 0.000000 -20.476523 24.225474 3.469521 19.897449 3.670829 0.211163 -5.983521 6.856767 5.670181 0.000098 0.000002 0.000914 0.000000 -0.000000 -0.000001 -25.587374 -11.840933 -12.430217 15.944605 2.798982 -0.558291 -4.918928 -2.155201 -1.260057 0.000152 0.000027 -0.002041 0.000001 0.000003 -0.000000 
